<svg xmlns="http://www.w3.org/2000/svg" xml:space="preserve" fill="#fff" viewBox="0 0 512 512"><path d="M.217 56.169v335.715h207.824V56.169zm15.987 319.73V72.156h175.85v303.742z"/><path d="M124.096 0v48.461h15.802V15.802h280.231v480.396H139.898v-95.869h-15.802V512h311.835V0z"/><path d="M331.631 40.033h64.263v15.802h-64.263zM235.762 112.724h15.802v15.802h-15.802zM268.421 112.724h127.473v15.802H268.421zM235.762 144.329h15.802v15.802h-15.802zM268.421 144.329h127.473v15.802H268.421zM235.762 175.934h15.802v15.802h-15.802zM268.421 175.934h127.473v15.802H268.421zM235.762 208.593h15.802v15.802h-15.802zM268.421 208.593h127.473v15.802H268.421zM235.762 240.198h15.802V256h-15.802zM268.421 240.198h127.473V256H268.421zM235.762 271.802h15.802v15.802h-15.802zM268.421 271.802h127.473v15.802H268.421zM235.762 304.461h15.802v15.802h-15.802zM268.421 304.461h127.473v15.802H268.421zM235.762 336.066h15.802v15.802h-15.802zM268.421 336.066h127.473v15.802H268.421zM291.598 376.099h24.23v15.802h-24.23zM331.631 376.099h64.263v15.802h-64.263zM291.598 400.329h24.23v15.802h-24.23zM331.631 400.329h64.263v15.802h-64.263zM331.631 423.506h64.263v15.802h-64.263zM164.124 463.539h87.44v15.802h-87.44zM444.359 135.857v80.11h15.802v-64.218l11.655.066v240.07h39.967V136.101zm51.437 240.042h-7.993v-223.81h7.993zM471.75 88.494v40.033h15.803v-24.231h8.428v24.231h15.802V88.494zM495.981 423.506v15.214l-3.597 12.387-4.831-12.714v-14.887H471.75v17.788l11.657 30.673h19.376l9-31v-17.461zM471.746 400.329h40.033v15.802h-40.033zM24.197 80.149V256h159.865V80.149zm143.878 159.864H40.184V96.136h127.891zM28.227 271.802h15.802v15.802H28.227zM59.832 271.802h15.802v15.802H59.832zM92.487 271.802h15.802v15.802H92.487zM124.092 271.802h15.802v15.802h-15.802zM28.227 296.033h15.802v15.802H28.227zM59.832 296.033h15.802v15.802H59.832zM92.487 296.033h15.802v15.802H92.487zM124.092 296.033h15.802v15.802h-15.802zM28.227 320.263h15.802v15.802H28.227zM59.832 320.263h15.802v15.802H59.832zM92.487 320.263h15.802v15.802H92.487zM124.092 320.263h15.802v15.802h-15.802zM28.227 344.494h15.802v15.802H28.227zM59.832 344.494h15.802v15.802H59.832zM92.487 344.494h15.802v15.802H92.487zM124.092 344.494h15.802v15.802h-15.802zM155.696 271.802h15.802v40.033h-15.802zM155.696 320.263h15.802v40.033h-15.802z"/><path d="M92.487 104.296h15.802v15.802H92.487zM115.664 104.296h16.856v15.802h-16.856zM139.894 104.296h15.802v15.802h-15.802z"/></svg>