<svg xmlns="http://www.w3.org/2000/svg" xml:space="preserve" width="800" height="800" fill="#fff" viewBox="0 0 331.293 331.293"><path d="M234.924 181.58H184.81a8 8 0 0 1-8-8 8 8 0 0 1 8-8h50.114a8 8 0 0 1 8 8 8 8 0 0 1-8 8M234.924 205.915H184.81a8 8 0 0 1-8-8 8 8 0 0 1 8-8h50.114a8 8 0 0 1 8 8 8 8 0 0 1-8 8M234.924 230.249H184.81a8 8 0 0 1-8-8 8 8 0 0 1 8-8h50.114a8 8 0 0 1 8 8 8 8 0 0 1-8 8M234.924 254.584H184.81a8 8 0 0 1-8-8 8 8 0 0 1 8-8h50.114a8 8 0 0 1 8 8 8 8 0 0 1-8 8M234.924 278.919H184.81a8 8 0 0 1-8-8 8 8 0 0 1 8-8h50.114a8 8 0 0 1 8 8 8 8 0 0 1-8 8M122.638 127.063h68.852c5.5 0 10-4.339 10-9.642s-4.5-9.642-10-9.642h-68.852c-5.5 0-10 4.339-10 9.642 0 5.304 4.5 9.642 10 9.642"/><path d="m319.413 167.869-33.476-17.547-.028-68.599a8 8 0 0 0-3.174-6.377L185.273 1.62a8 8 0 0 0-10.144.404L92.267 75.75a8 8 0 0 0-2.682 5.977v91.531l-14.199-7.385a8 8 0 0 0-7.383 0L7.474 197.354a8 8 0 0 0-4.309 7.097v118.842a8 8 0 0 0 8 8h303.962c7.168 0 13-5.831 13-13V182.275c.001-5.701-3.664-11.76-8.714-14.406M63.695 315.293H19.166v-36.477l44.529-25.482zm0-80.394-44.529 25.482v-13.904l44.529-25.483zm0-32.339-44.529 25.483v-18.735l44.529-23.16zM178.472 20.465l26.164 53.261h-86.025zm-54.249 294.828H79.695v-61.959l44.529 25.482zm0-54.911L79.694 234.9v-13.905l44.529 25.483zm0-32.339L79.695 202.56v-16.413l44.529 23.16zm29.303 87.25h-13.302v-39.867h13.302zm0-59.15h-13.302v-17.807h13.302zm0-37.091h-13.302v-14.601a8 8 0 0 0-.671-3.206h13.974v17.807zm1.323-74.182h-32.211c-5.5 0-10 4.339-10 9.642s4.5 9.642 10 9.642h30.888v17.807h-30.888c-3.41 0-6.433 1.67-8.24 4.202l-8.813-4.584V89.726h103.894v47.822h-42.954c-5.13 0-9.563 2.995-11.676 7.322m96.75 170.423h-82.073V153.548h82.073z"/></svg>