<svg xmlns="http://www.w3.org/2000/svg" xml:space="preserve" width="800" height="800" fill="#fff" viewBox="0 0 45.077 45.076"><path d="M28.113 12.649h-5.571v-2.344c0-.463-.268-.883-.697-1.062a1.14 1.14 0 0 0-1.246.249l-4.749 4.75a1.26 1.26 0 0 0 .003 1.776l4.75 4.75c.328.33.811.426 1.241.249a1.14 1.14 0 0 0 .697-1.062v-2.359h5.571c1.201 0 2.174-1.274 2.174-2.473.001-1.2-.972-2.474-2.173-2.474M25.165 24.322a1.161 1.161 0 0 0-1.978.812v2.356h-5.528c-1.199 0-2.174 1.274-2.174 2.473 0 1.2.975 2.476 2.174 2.476h5.528v2.348a1.159 1.159 0 0 0 1.978.812l4.752-4.752a1.257 1.257 0 0 0 0-1.774zM5.893 12.649h-.048c-1.62 0-3.165.736-4.245 1.945a5.74 5.74 0 0 0-1.412 4.453L2.802 42.17c.179 1.594 1.481 2.906 3.066 2.906 1.587 0 2.888-1.305 3.068-2.896l2.612-23.134a5.73 5.73 0 0 0-1.412-4.451c-1.08-1.21-2.623-1.946-4.243-1.946"/><circle cx="5.868" cy="5.606" r="5.606"/><path d="M43.477 14.594c-1.08-1.209-2.625-1.945-4.245-1.945h-.048c-1.621 0-3.164.736-4.244 1.945a5.73 5.73 0 0 0-1.412 4.453L36.14 42.17c.181 1.594 1.48 2.906 3.067 2.906 1.585 0 2.888-1.305 3.066-2.896l2.613-23.134a5.72 5.72 0 0 0-1.409-4.452"/><circle cx="39.208" cy="5.606" r="5.606"/></svg>