<svg xmlns="http://www.w3.org/2000/svg" xml:space="preserve" width="800" height="800" fill="#fff" viewBox="0 0 512 512"><path d="M110.933 85.333H93.867V51.2c0-5.12-3.413-8.533-8.533-8.533s-8.533 3.413-8.533 8.533v42.667c0 5.12 3.413 8.533 8.533 8.533h25.6c5.12 0 8.533-3.413 8.533-8.533s-3.414-8.534-8.534-8.534"/><path d="M170.667 85.333C170.667 38.4 132.267 0 85.333 0 38.4 0 0 38.4 0 85.333s38.4 85.333 85.333 85.333c46.934.001 85.334-38.399 85.334-85.333M85.333 153.6c-37.547 0-68.267-30.72-68.267-68.267s30.72-68.267 68.267-68.267S153.6 47.786 153.6 85.333 122.88 153.6 85.333 153.6"/><path d="M469.333 179.2c-9.387 0-18.773 3.413-25.6 8.533V179.2c0-23.893-18.773-42.667-42.667-42.667-9.387 0-18.773 3.413-25.6 8.533 0-23.893-18.773-42.667-42.667-42.667-9.387 0-18.773 3.413-25.6 8.533V42.667C307.2 18.773 288.427 0 264.533 0s-42.667 18.773-42.667 42.667v193.707c-18.773-32.427-62.293-48.64-95.573-36.693-4.267.853-7.68 3.413-11.947 5.973-12.8 8.533-11.947 19.627-11.947 23.04-.853 5.12 0 5.973 11.947 19.627 14.507 17.067 46.08 52.907 65.707 88.747 1.707 1.707 24.747 39.253 50.347 67.413v22.187C230.4 473.6 268.8 512 315.733 512h85.333c36.693 0 75.093-30.72 83.627-66.56 2.56-10.24 5.12-17.92 8.533-21.333C501.76 413.867 512 389.973 512 358.4V221.867c0-23.894-18.773-42.667-42.667-42.667M401.92 494.933h-85.333c-37.547 0-68.267-30.72-68.267-68.267v-7.726a91 91 0 0 0 5.12 3.459c5.12 4.267 9.387 6.827 14.507 11.093 1.707.853 3.413 1.707 5.12 1.707 2.56 0 5.12-.853 5.973-3.413 3.413-3.413 2.56-8.533-.853-11.947-5.12-5.12-10.24-8.533-15.36-11.947-5.914-4.224-11.828-8.451-17.742-13.504-25.358-26.455-49.672-65.856-49.672-65.856-20.48-36.693-52.907-73.387-68.267-91.307-2.56-3.413-5.973-7.68-7.68-9.387 0-2.56 0-4.267 5.973-7.68 3.413-1.707 5.973-3.413 8.533-4.267 22.187-7.68 58.88 2.56 75.093 30.72l13.191 19.786c.109.523.26 1.041.462 1.547l8.533 17.067q2.56 5.12 7.68 5.12c1.707 0 2.56 0 3.413-1.707 3.413-1.707 5.12-6.827 3.413-11.093l-6.02-12.039q.044-.38.046-.761V42.667c0-14.507 11.093-25.6 25.6-25.6s25.6 11.093 25.6 25.6V281.6c0 5.12 3.413 8.533 8.533 8.533s8.533-3.413 8.533-8.533V145.067c0-14.507 11.093-25.6 25.6-25.6s25.6 11.093 25.6 25.6v127.146c0 5.12 3.413 8.533 8.533 8.533s8.533-3.413 8.533-8.533V179.2c0-14.507 11.093-25.6 25.6-25.6s25.6 11.093 25.6 25.6v102.4c0 5.12 3.413 8.533 8.533 8.533s8.533-3.413 8.533-8.533v-59.733c0-14.507 11.093-25.6 25.6-25.6s25.6 11.093 25.6 25.6V358.4c0 15.874-3.067 28.674-6.682 37.998a9.7 9.7 0 0 0-1.852 2.962c-3.413 11.093-13.653 13.653-32.427 18.773l-5.12.853c-4.267.853-6.827 5.973-5.973 10.24 1.707 3.413 5.12 5.973 8.533 5.973h6.827c3.922-1.07 7.842-2.104 11.655-3.254a105 105 0 0 0-2.268 9.228c-5.967 29.014-37.541 53.76-66.554 53.76"/></svg>