<svg xmlns="http://www.w3.org/2000/svg" xml:space="preserve" width="800" height="800" fill="#fff" viewBox="0 0 512 512"><path d="M426.667 0H85.333c-9.412 0-17.067 7.654-17.067 17.067v477.867c0 9.412 7.654 17.067 17.067 17.067h341.333c9.404 0 17.067-7.654 17.067-17.067V17.067C443.733 7.654 436.07 0 426.667 0M213.333 460.8H128a8.53 8.53 0 0 1-8.533-8.533 8.53 8.53 0 0 1 8.533-8.533h85.333a8.536 8.536 0 0 1 8.533 8.533c.001 4.71-3.822 8.533-8.533 8.533m34.134-34.133H128c-4.719 0-8.533-3.823-8.533-8.533s3.814-8.533 8.533-8.533h119.467c4.71 0 8.533 3.823 8.533 8.533s-3.823 8.533-8.533 8.533m-128-76.8a8.53 8.53 0 0 1 8.533-8.533h85.333c4.71 0 8.533 3.823 8.533 8.533s-3.823 8.533-8.533 8.533H128a8.53 8.53 0 0 1-8.533-8.533m128-25.6H128a8.53 8.53 0 0 1-8.533-8.533 8.53 8.53 0 0 1 8.533-8.533h119.467a8.536 8.536 0 0 1 8.533 8.533 8.536 8.536 0 0 1-8.533 8.533m-128-76.8a8.53 8.53 0 0 1 8.533-8.533h85.333c4.71 0 8.533 3.823 8.533 8.533S218.044 256 213.333 256H128a8.53 8.53 0 0 1-8.533-8.533m128-25.6H128a8.53 8.53 0 0 1-8.533-8.533 8.53 8.53 0 0 1 8.533-8.533h119.467a8.536 8.536 0 0 1 8.533 8.533 8.536 8.536 0 0 1-8.533 8.533m34.133-76.8a8.53 8.53 0 0 1-8.533-8.533V80.333L256 63.266l-17.067 17.067v56.201a8.536 8.536 0 0 1-8.533 8.533 8.53 8.53 0 0 1-8.533-8.533V97.399l-11.034 11.034a8.534 8.534 0 0 1-12.075 0 8.54 8.54 0 0 1 0-12.066l25.6-25.591.009-.017 25.591-25.591a8.534 8.534 0 0 1 12.075 0l25.591 25.591.009.017 25.6 25.591a8.54 8.54 0 0 1 0 12.066 8.54 8.54 0 0 1-12.075 0l-11.025-11.034v39.134c0 4.711-3.823 8.534-8.533 8.534m92.271 252.424-42.667 59.733a8.56 8.56 0 0 1-6.238 3.55 8.577 8.577 0 0 1-6.742-2.474l-25.6-25.6a8.54 8.54 0 0 1 0-12.066 8.534 8.534 0 0 1 12.075 0l18.475 18.475 36.813-51.533c2.739-3.84 8.073-4.719 11.904-1.988 3.832 2.738 4.719 8.072 1.98 11.903m0-102.4-42.667 59.733a8.57 8.57 0 0 1-6.238 3.55 8.577 8.577 0 0 1-6.742-2.474l-25.6-25.6a8.535 8.535 0 0 1 12.075-12.066l18.475 18.475 36.813-51.533c2.739-3.831 8.073-4.719 11.904-1.988 3.832 2.738 4.719 8.072 1.98 11.903m0-102.4-42.667 59.733a8.57 8.57 0 0 1-6.238 3.55 8.577 8.577 0 0 1-6.742-2.474l-25.6-25.6a8.54 8.54 0 0 1 0-12.066 8.534 8.534 0 0 1 12.075 0l18.475 18.475 36.813-51.533c2.739-3.831 8.073-4.71 11.904-1.988 3.832 2.738 4.719 8.072 1.98 11.903"/></svg>