<svg xmlns="http://www.w3.org/2000/svg" xml:space="preserve" fill="#fff" viewBox="0 0 496 496"><path d="M427.312 0H112v88.632A63.4 63.4 0 0 0 80 80c-35.288 0-64 28.712-64 64s28.712 64 64 64a63.4 63.4 0 0 0 32-8.632V208H0v288h496V68.688zM112 387.68C103.176 395.616 91.952 400 80 400c-26.472 0-48-21.528-48-48s21.528-48 48-48c11.952 0 23.176 4.384 32 12.32zm0-91.048A63.4 63.4 0 0 0 80 288c-35.288 0-64 28.712-64 64s28.712 64 64 64a63.4 63.4 0 0 0 32-8.632V480H16V224h96zm0-116.952C103.176 187.616 91.952 192 80 192c-26.472 0-48-21.528-48-48s21.528-48 48-48c11.952 0 23.176 4.384 32 12.32zM432 27.312 468.688 64H432zM480 480H128V16h288v64h64z"/><path d="M144 360h240v48h80V152H144zm256-192h48v32h-48zm0 48h48v32h-48zm0 48h48v32h-48zm0 48h48v32h-48zm0 48h48v32h-48zm-64-192h48v32h-48zm0 48h48v32h-48zm0 48h48v32h-48zm0 48h48v32h-48zM160 168h160v32H160zm0 48h160v32H160zm0 48h160v32H160zm0 48h160v32H160zM144 120h120v16H144zM304 96c17.648 0 32-14.352 32-32s-14.352-32-32-32-32 14.352-32 32 14.352 32 32 32m0-48c8.824 0 16 7.176 16 16s-7.176 16-16 16-16-7.176-16-16 7.176-16 16-16M72 104v8.408c-9.12 1.856-16 9.936-16 19.592 0 11.032 8.976 20 20 20h8c2.208 0 4 1.8 4 4s-1.792 4-4 4h-8c-2.208 0-4-1.8-4-4v-4H56v4c0 9.664 6.88 17.736 16 19.592V184h16v-8.408c9.12-1.856 16-9.936 16-19.592 0-11.032-8.976-20-20-20h-8c-2.208 0-4-1.8-4-4s1.792-4 4-4h8c2.208 0 4 1.8 4 4v4h16v-4c0-9.664-6.88-17.736-16-19.592V104z"/></svg>